PathFileType	4	(X/Y/Z)	Walk8.trc
DataRate	CameraRate	NumFrames	NumMarkers	Units	OrigDataRate	OrigDataStartFrame	OrigNumFrames
200.000000	200.000000	4	59	mm	200.000000	381	530
Frame#	Times		LBHD		C7		T10		LPSI		RPSI		RCAR		LElbowM		LTB1		RWRR		LLFC		LUA1		LFHD		RUA1		LACR1		LCAR		RWRU		RFA1		RElbowM		RTH3		LWRU		LFA1		CLAV		STRN		RACR1		RBack		RTB1		RBHD		RTH2		RCAL		RTB4		LWRR		RToe		RTB3		RFHD		RMT1		RTB2		RTH4		RMT5		RElbow		RTH1		LTB3		LElbow		LMT1		RMMAL		LTH1		LTH3		LTH4		RASI		RLFC		LTH2		LCAL		LLMAL		LMT5		LASI		RLMAL		LTB2		LTB4		LToe		LMMAL
			X1	Y1	Z1	X2	Y2	Z2	X3	Y3	Z3	X4	Y4	Z4	X5	Y5	Z5	X6	Y6	Z6	X7	Y7	Z7	X8	Y8	Z8	X9	Y9	Z9	X10	Y10	Z10	X11	Y11	Z11	X12	Y12	Z12	X13	Y13	Z13	X14	Y14	Z14	X15	Y15	Z15	X16	Y16	Z16	X17	Y17	Z17	X18	Y18	Z18	X19	Y19	Z19	X20	Y20	Z20	X21	Y21	Z21	X22	Y22	Z22	X23	Y23	Z23	X24	Y24	Z24	X25	Y25	Z25	X26	Y26	Z26	X27	Y27	Z27	X28	Y28	Z28	X29	Y29	Z29	X30	Y30	Z30	X31	Y31	Z31	X32	Y32	Z32	X33	Y33	Z33	X34	Y34	Z34	X35	Y35	Z35	X36	Y36	Z36	X37	Y37	Z37	X38	Y38	Z38	X39	Y39	Z39	X40	Y40	Z40	X41	Y41	Z41	X42	Y42	Z42	X43	Y43	Z43	X44	Y44	Z44	X45	Y45	Z45	X46	Y46	Z46	X47	Y47	Z47	X48	Y48	Z48	X49	Y49	Z49	X50	Y50	Z50	X51	Y51	Z51	X52	Y52	Z52	X53	Y53	Z53	X54	Y54	Z54	X55	Y55	Z55	X56	Y56	Z56	X57	Y57	Z57	X58	Y58	Z58	X59	Y59	Z59

381	1.905	194.71	1493.2	-10.829	182.94	1362.4	54.028	160.99	1095.6	36.779	139.21	903.44	-6.8034	137.36	910.88	93.281	362.05	751.45	338.48	199.49	993.81	-175.03	355.15	346.69	-50.27	386.51	793.26	294.67	369.87	466.49	-123.34	266.07	1146.8	-207.94	366.34	1517.6	3.5348	278.63	1145.1	278.98	264.94	1311.3	-112.92	374.82	766.83	-283.73	314.66	770.89	302.11	279.17	875.31	317.1	219.41	963.65	232.95	304.64	557.28	192.09	317.49	797.46	-282.34	273.86	912.79	-266.95	310.7	1289.4	53.704	376.21	1185.4	44.911	262.52	1303	204.06	165.32	1260	179.44	332.29	332.68	87.601	197.83	1500.5	112.32	362.18	666.98	178.35	236.28	37.423	117.77	323.02	240.82	90.025	371.58	802.04	-230.45	443.19	24.063	60.55	326.8	147.34	86.15	374.47	1527.3	79.733	386.01	46.55	61.848	309.61	240.77	160.9	296.63	650.17	214.78	373.75	32.14	118.92	264.25	1001.7	311.47	294.05	737	238.23	237.4	209.27	-27.624	233.88	1031.4	-236.16	205.17	75.659	-32.505	289.62	71.766	55.597	320.57	756.53	-160.31	376.59	578.35	-129.12	351.46	668.64	-142.56	367.47	881.04	188.49	321.55	458.24	173.09	411.65	695.8	-109.7	87.98	168.03	1.2628	129.73	168.57	-51.496	164.73	86.07	-77.386	338.43	880.57	-125.1	297.11	63.725	134.86	255.4	303.68	-96.798	288.77	283.9	-36.971	222.2	31.277	-59.807	164.6	150.57	18.024
382	1.91	200.16	1493.2	-10.98	188.47	1362.5	54.04	166.23	1095.8	37.11	144.39	903.53	-6.5309	142.41	911.12	93.502	370.38	752.48	338.07	204.26	993.84	-174.64	366.41	347.31	-49.327	394.32	794.54	294.22	379.37	467.58	-122.61	270.48	1146.9	-207.86	371.78	1517.7	3.3928	284.3	1145.5	279.23	270.2	1311.3	-112.86	378.74	766.7	-284.24	322.64	771.64	302.09	286.53	875.75	317.23	225.76	963.8	233.39	307.45	557.28	192.25	321.43	797.36	-282.57	278.05	912.82	-267.02	316.19	1289.5	53.72	381.62	1185.4	44.856	268.06	1303.3	204.05	170.79	1260.3	179.61	333.39	332.52	87.857	203.25	1500.6	112.17	365.95	666.39	178.07	236.31	37.488	117.7	323.69	240.67	90.226	375.72	801.9	-230.96	443.18	24.001	60.11	327.17	147.17	86.202	379.9	1527.4	79.586	386	46.319	61.618	310.13	240.64	161.04	300.59	650.22	215.04	373.76	32.098	118.9	270.68	1002.1	311.83	298.38	736.93	238.84	252.28	207.28	-27.098	238.23	1031.4	-235.95	224.31	73.82	-32.134	289.68	71.72	55.534	326.99	757.08	-159.89	384.87	579.54	-128.5	358.78	669.5	-141.99	372.6	881.3	188.68	323.02	458.09	173.27	418.62	697.37	-109.09	103.62	161.7	1.3511	145.75	163.67	-51.379	183.7	82.638	-77.146	343.55	880.71	-125.04	297.17	63.709	134.78	268.18	301.99	-96.344	301.81	283.11	-36.388	243.14	30.107	-59.371	180.87	146.81	18.349
383	1.915	205.62	1493.2	-11.153	194.01	1362.6	54.04	171.47	1095.9	37.406	149.56	903.54	-6.2963	147.45	911.28	93.69	378.65	753.44	337.64	209.08	993.79	-174.23	377.74	347.93	-48.392	402.1	795.74	293.76	388.75	468.59	-121.86	274.95	1146.8	-207.79	377.23	1517.8	3.2311	289.99	1145.8	279.46	275.49	1311.1	-112.8	382.61	766.46	-284.77	330.58	772.33	302.04	293.85	876.12	317.35	232.14	963.89	233.79	310.19	557.27	192.4	325.35	797.19	-282.83	282.24	912.77	-267.1	321.69	1289.5	53.729	387.03	1185.3	44.816	273.61	1303.5	204.04	176.27	1260.5	179.76	334.5	332.35	88.119	208.69	1500.6	111.99	369.74	665.72	177.78	236.34	37.557	117.63	324.39	240.55	90.447	379.82	801.66	-231.51	443.17	23.953	59.673	327.54	147.01	86.27	385.34	1527.5	79.421	385.99	46.086	61.398	310.66	240.51	161.18	304.56	650.24	215.31	373.77	32.056	118.88	277.08	1002.4	312.16	302.98	736.84	239.42	267.32	205.21	-26.539	242.61	1031.4	-235.74	243.69	71.973	-31.735	289.74	71.677	55.481	333.42	757.54	-159.45	393.06	580.64	-127.85	366.05	670.28	-141.42	377.71	881.47	188.85	324.5	457.95	173.45	425.5	698.82	-108.44	119.59	155.17	1.4311	162.05	158.62	-51.269	202.96	79.143	-76.882	348.67	880.76	-124.97	297.25	63.691	134.7	281.05	300.18	-95.888	314.93	282.24	-35.783	264.34	29.021	-58.887	197.39	142.94	18.672
384	1.92	211.09	1493.1	-11.347	199.55	1362.6	54.03	176.7	1096	37.667	154.71	903.46	-6.0993	152.48	911.35	93.845	386.87	754.33	337.21	213.95	993.66	-173.81	389.12	348.53	-47.459	409.84	796.87	293.3	398.01	469.52	-121.1	279.5	1146.7	-207.71	382.7	1517.7	3.0514	295.69	1146.1	279.66	280.8	1310.9	-112.75	386.46	766.12	-285.32	338.49	772.95	301.97	301.12	876.42	317.43	238.53	963.91	234.15	312.87	557.24	192.55	329.25	796.92	-283.11	286.42	912.63	-267.18	327.2	1289.5	53.731	392.45	1185.2	44.789	279.16	1303.6	204.03	181.75	1260.7	179.89	335.62	332.19	88.388	214.13	1500.6	111.8	373.53	665.01	177.49	236.37	37.628	117.54	325.12	240.43	90.688	383.89	801.33	-232.09	443.18	23.916	59.247	327.92	146.86	86.355	390.8	1527.5	79.24	385.98	45.854	61.192	311.21	240.4	161.34	308.55	650.24	215.59	373.79	32.014	118.87	283.45	1002.6	312.47	307.8	736.72	239.98	282.49	203.09	-25.953	247.02	1031.3	-235.52	263.27	70.143	-31.324	289.82	71.643	55.44	339.83	757.9	-159.01	401.15	581.65	-127.18	373.27	670.98	-140.86	382.82	881.57	188.98	325.98	457.8	173.65	432.31	700.16	-107.75	135.89	148.49	1.5079	178.63	153.45	-51.165	222.48	75.627	-76.605	353.79	880.73	-124.88	297.33	63.673	134.62	294.02	298.26	-95.433	328.1	281.31	-35.159	285.73	28.044	-58.378	214.14	138.99	18.989
